<?xml version="1.0" encoding="UTF-8"?>
<!DOCTYPE svg PUBLIC "-//W3C//DTD SVG 1.1//EN" "http://www.w3.org/Graphics/SVG/1.1/DTD/svg11.dtd">
<svg xmlns="http://www.w3.org/2000/svg" version="1.1" width="1552px" height="706px" style="shape-rendering:geometricPrecision; text-rendering:geometricPrecision; image-rendering:optimizeQuality; fill-rule:evenodd; clip-rule:evenodd" xmlns:xlink="http://www.w3.org/1999/xlink">
<g><path style="opacity:1" fill="#fefefe" d="M -0.5,-0.5 C 123.833,-0.5 248.167,-0.5 372.5,-0.5C 357.999,20.3824 350.165,43.7157 349,69.5C 347.578,112.275 351.244,154.609 360,196.5C 373.685,231.276 379.352,267.276 377,304.5C 373.379,323.549 366.546,341.215 356.5,357.5C 352.082,359.583 349.082,362.916 347.5,367.5C 345.668,371.681 343.002,375.348 339.5,378.5C 330.167,379.167 325.167,384.167 324.5,393.5C 319.544,394.145 315.211,396.145 311.5,399.5C 302.099,404.284 292.599,408.95 283,413.5C 282.827,407.652 282.327,401.985 281.5,396.5C 279.877,378.693 270.211,370.86 252.5,373C 248.078,374.968 244.245,377.802 241,381.5C 235.919,390.665 230.585,399.665 225,408.5C 218.624,413.209 213.291,418.875 209,425.5C 205.681,434.201 204.681,443.201 206,452.5C 208.421,465.287 213.254,476.954 220.5,487.5C 186.278,503.141 150.611,514.308 113.5,521C 86.0117,524.804 58.6784,529.47 31.5,535C 7.30931,540.553 -0.857357,555.053 7,578.5C 19.955,599.123 35.455,617.623 53.5,634C 76.9159,655.405 102.583,673.739 130.5,689C 143.169,695.778 156.502,700.778 170.5,704C 182.674,704.826 194.674,704.66 206.5,703.5C 207.338,703.842 207.672,704.508 207.5,705.5C 138.167,705.5 68.8333,705.5 -0.5,705.5C -0.5,470.167 -0.5,234.833 -0.5,-0.5 Z"/></g>
<g><path style="opacity:1" fill="#b6dff5" d="M 372.5,-0.5 C 417.5,-0.5 462.5,-0.5 507.5,-0.5C 522.774,10.8161 539.107,20.6494 556.5,29C 594.085,42.0404 632.752,47.0404 672.5,44C 699.564,41.9929 726.564,39.3263 753.5,36C 787.205,34.1393 820.539,36.806 853.5,44C 910.699,58.1861 951.199,92.3528 975,146.5C 985.58,170.484 992.58,195.484 996,221.5C 999.775,295.264 1016.44,365.931 1046,433.5C 1054.84,449.672 1060.18,467.005 1062,485.5C 1073.63,570.361 1050.13,643.695 991.5,705.5C 925.5,705.5 859.5,705.5 793.5,705.5C 793.889,702.447 793.223,699.78 791.5,697.5C 791.5,693.833 791.5,690.167 791.5,686.5C 785.137,667.244 778.47,648.077 771.5,629C 778.803,609.092 785.303,588.925 791,568.5C 791.816,563.316 791.65,558.316 790.5,553.5C 791.209,552.596 792.209,552.263 793.5,552.5C 793.172,537.8 793.672,523.133 795,508.5C 798.895,500.045 802.228,491.378 805,482.5C 805.93,479.638 807.597,477.305 810,475.5C 816.295,460.52 811.461,451.854 795.5,449.5C 795.768,447.901 795.434,446.568 794.5,445.5C 794.5,443.5 794.5,441.5 794.5,439.5C 799.37,435.476 804.537,431.809 810,428.5C 813.265,422.528 813.265,416.528 810,410.5C 805.801,405.966 801.301,401.799 796.5,398C 789.021,397.128 786.354,400.294 788.5,407.5C 777.206,416.194 774.206,427.027 779.5,440C 779.275,442.528 778.942,445.028 778.5,447.5C 774.5,447.5 770.5,447.5 766.5,447.5C 760.064,441.729 754.731,435.062 750.5,427.5C 774.252,408.566 791.252,384.733 801.5,356C 799.503,351.78 796.169,350.447 791.5,352C 787.649,357.333 783.316,362.333 778.5,367C 770.899,371.612 763.232,371.612 755.5,367C 747.654,358.367 746.487,348.867 752,338.5C 755.299,335.022 758.966,332.022 763,329.5C 764.301,327.635 764.635,325.635 764,323.5C 754.582,314.288 743.582,307.621 731,303.5C 726.107,312.284 721.44,321.284 717,330.5C 713.221,336.612 709.055,342.445 704.5,348C 702.231,349.558 699.898,349.724 697.5,348.5C 690.202,336.343 680.202,333.177 667.5,339C 656.706,348.737 655.706,359.404 664.5,371C 668.079,372.706 671.579,374.539 675,376.5C 675.667,377.833 675.667,379.167 675,380.5C 672.252,385.252 668.752,389.419 664.5,393C 656.47,398.677 648.47,404.343 640.5,410C 646.12,420.743 652.62,430.91 660,440.5C 664.082,445.55 668.916,446.55 674.5,443.5C 678.322,436.849 683.322,431.349 689.5,427C 696.779,424.705 703.445,425.872 709.5,430.5C 712.007,433.641 714.007,436.974 715.5,440.5C 715.5,442.5 715.5,444.5 715.5,446.5C 716.959,446.567 718.292,446.234 719.5,445.5C 724.541,451.86 730.874,456.527 738.5,459.5C 738.162,462.157 738.829,464.49 740.5,466.5C 744.962,468.231 749.295,470.231 753.5,472.5C 742.196,497.016 737.196,522.682 738.5,549.5C 736.903,550.737 735.737,552.404 735,554.5C 725.034,579.957 715.201,605.624 705.5,631.5C 714.227,650.622 723.227,669.622 732.5,688.5C 732.871,692.003 731.871,695.003 729.5,697.5C 722.71,698.677 716.71,701.344 711.5,705.5C 683.5,705.5 655.5,705.5 627.5,705.5C 628.343,687.347 629.01,669.18 629.5,651C 630.712,626.269 619.045,612.102 594.5,608.5C 598.045,601.276 599.379,593.609 598.5,585.5C 598.125,583.302 597.458,581.302 596.5,579.5C 596.56,576.659 597.226,573.993 598.5,571.5C 607.159,566.825 609.659,559.825 606,550.5C 604.723,548.253 603.223,546.253 601.5,544.5C 601.623,537.471 601.29,530.471 600.5,523.5C 600.665,520.482 600.498,517.482 600,514.5C 598.333,512.167 596.667,509.833 595,507.5C 594.667,502.5 594.333,497.5 594,492.5C 592.374,489.872 590.374,487.539 588,485.5C 586.421,481.341 584.921,477.174 583.5,473C 579.993,470.746 576.327,468.746 572.5,467C 568.739,466.262 565.072,466.595 561.5,468C 552.209,475.068 550.875,483.568 557.5,493.5C 560.079,498.904 563.245,503.904 567,508.5C 567.74,509.749 567.573,510.749 566.5,511.5C 559.439,510.456 553.939,512.79 550,518.5C 545.273,528.076 542.773,538.076 542.5,548.5C 531.585,548.18 520.752,548.513 510,549.5C 509.333,550.833 509.333,552.167 510,553.5C 515.119,564.069 519.953,574.736 524.5,585.5C 513.677,586.656 508.677,592.656 509.5,603.5C 508.178,603.33 507.011,603.663 506,604.5C 505.074,618.506 504.074,632.506 503,646.5C 499.272,652.17 494.106,654.003 487.5,652C 472.647,646.191 464.314,651.191 462.5,667C 463.42,672.936 466.42,677.602 471.5,681C 477.444,681.763 483.278,681.263 489,679.5C 494.663,679.072 498.663,681.405 501,686.5C 501.5,692.825 501.666,699.158 501.5,705.5C 431.5,705.5 361.5,705.5 291.5,705.5C 291.672,704.508 291.338,703.842 290.5,703.5C 285.685,700.928 280.685,698.594 275.5,696.5C 270.212,692.562 268.212,687.228 269.5,680.5C 273.069,634.409 277.569,588.409 283,542.5C 283.795,532.46 283.462,522.46 282,512.5C 281.617,511.944 281.117,511.611 280.5,511.5C 281.314,506.881 281.647,502.214 281.5,497.5C 282.49,491.355 282.823,485.022 282.5,478.5C 287.55,479.961 292.55,481.628 297.5,483.5C 302.02,481.409 306.353,479.075 310.5,476.5C 320.298,485.798 329.965,495.298 339.5,505C 346.335,509.761 354.002,512.095 362.5,512C 366.909,517.08 371.909,521.414 377.5,525C 391.195,526.473 398.195,520.307 398.5,506.5C 409.963,507.538 416.63,502.371 418.5,491C 432.03,488.77 436.364,481.27 431.5,468.5C 440.002,471.141 447.502,469.141 454,462.5C 455.225,457.915 455.725,453.248 455.5,448.5C 488.851,423.243 526.517,413.409 568.5,419C 583.751,417.645 598.584,414.478 613,409.5C 615.249,398.722 611.083,391.556 600.5,388C 594.443,386.838 588.777,387.838 583.5,391C 579.465,394.7 575.798,398.7 572.5,403C 569.97,404.422 567.303,404.755 564.5,404C 554.85,392.65 547.183,379.984 541.5,366C 553.289,360.525 564.289,353.858 574.5,346C 577.544,343.088 578.711,339.588 578,335.5C 567.308,330.117 562.975,321.45 565,309.5C 571.823,295.926 581.99,292.426 595.5,299C 598.691,302.69 601.691,306.523 604.5,310.5C 605.723,311.614 607.056,311.781 608.5,311C 613.619,308.215 617.786,304.382 621,299.5C 627.67,289.497 633.837,279.164 639.5,268.5C 631.167,263.333 622.833,258.167 614.5,253C 609.256,249.364 607.256,244.531 608.5,238.5C 624.821,231.894 629.321,220.56 622,204.5C 612.597,195.901 602.764,195.401 592.5,203C 589.479,207.018 586.146,210.684 582.5,214C 580.5,214.667 578.5,214.667 576.5,214C 572.622,211.123 569.456,207.623 567,203.5C 562.039,194.412 557.206,185.246 552.5,176C 563.149,171.346 573.149,165.679 582.5,159C 585.704,156.131 588.537,152.965 591,149.5C 591.667,148.5 591.667,147.5 591,146.5C 573.363,137.433 570.863,125.267 583.5,110C 592.013,105.2 600.346,105.367 608.5,110.5C 611.219,114.639 614.385,118.306 618,121.5C 621.644,120.599 624.477,118.599 626.5,115.5C 608.968,106.282 590.301,100.782 570.5,99C 510.922,96.2056 463.756,119.039 429,167.5C 407.265,201.182 397.932,238.182 401,278.5C 397.973,308.524 386.807,334.857 367.5,357.5C 363.833,357.5 360.167,357.5 356.5,357.5C 366.546,341.215 373.379,323.549 377,304.5C 379.352,267.276 373.685,231.276 360,196.5C 351.244,154.609 347.578,112.275 349,69.5C 350.165,43.7157 357.999,20.3824 372.5,-0.5 Z"/></g>
<g><path style="opacity:1" fill="#fefefe" d="M 507.5,-0.5 C 645.5,-0.5 783.5,-0.5 921.5,-0.5C 928.695,24.8935 940.862,47.5602 958,67.5C 991.585,105.651 1033.58,129.651 1084,139.5C 1094.09,139.79 1103.59,137.623 1112.5,133C 1130.25,121.927 1146.25,108.594 1160.5,93C 1204.52,60.5452 1254.02,42.7119 1309,39.5C 1333.54,40.741 1358.04,42.5743 1382.5,45C 1415.84,45.5366 1449.17,45.2033 1482.5,44C 1499.59,43.8154 1515.25,39.1487 1529.5,30C 1538.68,21.808 1544.35,11.6413 1546.5,-0.5C 1548.17,-0.5 1549.83,-0.5 1551.5,-0.5C 1551.5,234.833 1551.5,470.167 1551.5,705.5C 1364.83,705.5 1178.17,705.5 991.5,705.5C 1050.13,643.695 1073.63,570.361 1062,485.5C 1060.18,467.005 1054.84,449.672 1046,433.5C 1016.44,365.931 999.775,295.264 996,221.5C 992.58,195.484 985.58,170.484 975,146.5C 951.199,92.3528 910.699,58.1861 853.5,44C 820.539,36.806 787.205,34.1393 753.5,36C 726.564,39.3263 699.564,41.9929 672.5,44C 632.752,47.0404 594.085,42.0404 556.5,29C 539.107,20.6494 522.774,10.8161 507.5,-0.5 Z"/></g>
<g><path style="opacity:1" fill="#b6e0f7" d="M 921.5,-0.5 C 1129.83,-0.5 1338.17,-0.5 1546.5,-0.5C 1544.35,11.6413 1538.68,21.808 1529.5,30C 1515.25,39.1487 1499.59,43.8154 1482.5,44C 1449.17,45.2033 1415.84,45.5366 1382.5,45C 1358.04,42.5743 1333.54,40.741 1309,39.5C 1254.02,42.7119 1204.52,60.5452 1160.5,93C 1146.25,108.594 1130.25,121.927 1112.5,133C 1103.59,137.623 1094.09,139.79 1084,139.5C 1033.58,129.651 991.585,105.651 958,67.5C 940.862,47.5602 928.695,24.8935 921.5,-0.5 Z"/></g>
<g><path style="opacity:1" fill="#fc9c25" d="M 455.5,448.5 C 425.412,418.748 396.079,388.415 367.5,357.5C 386.807,334.857 397.973,308.524 401,278.5C 397.932,238.182 407.265,201.182 429,167.5C 463.756,119.039 510.922,96.2056 570.5,99C 590.301,100.782 608.968,106.282 626.5,115.5C 624.477,118.599 621.644,120.599 618,121.5C 614.385,118.306 611.219,114.639 608.5,110.5C 600.346,105.367 592.013,105.2 583.5,110C 570.863,125.267 573.363,137.433 591,146.5C 591.667,147.5 591.667,148.5 591,149.5C 588.537,152.965 585.704,156.131 582.5,159C 573.149,165.679 563.149,171.346 552.5,176C 557.206,185.246 562.039,194.412 567,203.5C 569.456,207.623 572.622,211.123 576.5,214C 578.5,214.667 580.5,214.667 582.5,214C 586.146,210.684 589.479,207.018 592.5,203C 602.764,195.401 612.597,195.901 622,204.5C 629.321,220.56 624.821,231.894 608.5,238.5C 607.256,244.531 609.256,249.364 614.5,253C 622.833,258.167 631.167,263.333 639.5,268.5C 633.837,279.164 627.67,289.497 621,299.5C 617.786,304.382 613.619,308.215 608.5,311C 607.056,311.781 605.723,311.614 604.5,310.5C 601.691,306.523 598.691,302.69 595.5,299C 581.99,292.426 571.823,295.926 565,309.5C 562.975,321.45 567.308,330.117 578,335.5C 578.711,339.588 577.544,343.088 574.5,346C 564.289,353.858 553.289,360.525 541.5,366C 547.183,379.984 554.85,392.65 564.5,404C 567.303,404.755 569.97,404.422 572.5,403C 575.798,398.7 579.465,394.7 583.5,391C 588.777,387.838 594.443,386.838 600.5,388C 611.083,391.556 615.249,398.722 613,409.5C 598.584,414.478 583.751,417.645 568.5,419C 526.517,413.409 488.851,423.243 455.5,448.5 Z"/></g>
<g><path style="opacity:1" fill="#dff0f7" d="M 879.5,130.5 C 899.507,130.993 906.34,140.659 900,159.5C 893.093,167.786 884.593,169.786 874.5,165.5C 872.389,165.486 870.555,166.152 869,167.5C 868.5,167.167 868,166.833 867.5,166.5C 868.592,164.817 869.259,162.984 869.5,161C 862.721,147.261 866.055,137.094 879.5,130.5 Z"/></g>
<g><path style="opacity:1" fill="#fc9e1d" d="M 835.5,246.5 C 835.5,252.5 835.5,258.5 835.5,264.5C 834.596,265.209 834.263,266.209 834.5,267.5C 825.938,274.111 816.271,278.611 805.5,281C 797.836,284.485 797.836,286.151 805.5,286C 803.242,289.184 801.242,292.517 799.5,296C 800.867,299.476 802.7,299.976 805,297.5C 806.333,300.167 807.667,300.167 809,297.5C 809.718,298.451 810.551,298.617 811.5,298C 814.833,294 818.167,290 821.5,286C 822.928,285.421 824.262,285.588 825.5,286.5C 826.393,289.68 827.393,292.846 828.5,296C 825.914,315.547 815.08,322.714 796,317.5C 792.598,314.764 789.931,311.43 788,307.5C 787.667,301.167 787.333,294.833 787,288.5C 786.097,287.299 784.931,286.465 783.5,286C 777.796,285.47 772.129,285.803 766.5,287C 754.313,290.178 742.479,294.344 731,299.5C 730.228,299.355 729.561,299.022 729,298.5C 722.987,286.139 719.654,273.139 719,259.5C 720.439,257.552 722.272,256.219 724.5,255.5C 742.44,261.205 753.44,255.039 757.5,237C 756.397,223.233 748.897,216.4 735,216.5C 729.21,217.742 723.377,218.242 717.5,218C 716.667,217.167 715.833,216.333 715,215.5C 713.494,210.254 713.161,204.921 714,199.5C 715.466,189.033 717.466,178.7 720,168.5C 720.561,167.978 721.228,167.645 722,167.5C 737.505,172.728 753.338,174.228 769.5,172C 770.43,170.806 771.097,169.473 771.5,168C 763.774,152.894 767.774,142.227 783.5,136C 790.215,134.752 796.548,135.752 802.5,139C 805.106,140.938 806.939,143.438 808,146.5C 809.163,153.103 809.83,159.77 810,166.5C 813.693,169.035 817.859,170.202 822.5,170C 827.787,182.314 831.287,195.147 833,208.5C 834.276,221.142 835.109,233.809 835.5,246.5 Z"/></g>
<g><path style="opacity:1" fill="#b6e0f7" d="M 143.5,138.5 C 149.509,138.334 155.509,138.501 161.5,139C 172.826,141.327 184.159,143.66 195.5,146C 213.5,146.333 231.5,146.667 249.5,147C 271.33,148.499 291.33,155.166 309.5,167C 333.464,187.198 343.964,213.032 341,244.5C 338.927,264.311 332.594,282.644 322,299.5C 301.054,333.115 272.221,357.282 235.5,372C 223.529,375.382 211.862,379.382 200.5,384C 181.893,386.849 165.226,382.516 150.5,371C 135.784,358.743 126.284,343.243 122,324.5C 121.333,318.167 121.333,311.833 122,305.5C 128.068,286.225 132.402,266.558 135,246.5C 135.667,236.167 135.667,225.833 135,215.5C 133.001,202.17 131.001,188.836 129,175.5C 127.742,165.79 129.076,156.457 133,147.5C 135.489,143.168 138.989,140.168 143.5,138.5 Z"/></g>
<g><path style="opacity:1" fill="#fddd25" d="M 876.5,140.5 C 882.167,140.5 887.833,140.5 893.5,140.5C 893.5,146.167 893.5,151.833 893.5,157.5C 887.833,157.5 882.167,157.5 876.5,157.5C 876.5,151.833 876.5,146.167 876.5,140.5 Z"/></g>
<g><path style="opacity:1" fill="#1e3459" d="M 867.5,209.5 C 866.21,208.942 865.377,207.942 865,206.5C 864.71,204.048 864.044,201.715 863,199.5C 858.833,196.667 855.333,193.167 852.5,189C 850.19,188.503 847.857,188.337 845.5,188.5C 844.167,188.5 842.833,188.5 841.5,188.5C 840.717,183.442 842.717,179.942 847.5,178C 854.639,176.648 861.306,177.815 867.5,181.5C 870.617,184.678 872.284,188.512 872.5,193C 870.86,198.69 869.193,204.19 867.5,209.5 Z"/></g>
<g><path style="opacity:1" fill="#eb8d48" d="M 845.5,188.5 C 847.857,188.337 850.19,188.503 852.5,189C 855.333,193.167 858.833,196.667 863,199.5C 864.044,201.715 864.71,204.048 865,206.5C 865.377,207.942 866.21,208.942 867.5,209.5C 869.614,212.07 871.947,214.403 874.5,216.5C 874.271,221.258 872.604,225.425 869.5,229C 864.851,230.198 862.184,228.364 861.5,223.5C 860.093,221.692 858.926,219.692 858,217.5C 851.923,216.698 847.923,213.365 846,207.5C 843.273,201.038 843.107,194.705 845.5,188.5 Z"/></g>
<g><path style="opacity:1" fill="#0f2756" d="M 931.5,300.5 C 919.815,302.586 908.482,305.586 897.5,309.5C 889.796,294.9 881.296,280.567 872,266.5C 871.517,265.552 871.351,264.552 871.5,263.5C 873.999,260.831 876.332,257.998 878.5,255C 874.676,251.921 870.676,249.088 866.5,246.5C 865.482,247.193 864.482,247.859 863.5,248.5C 859.62,251.028 855.954,254.028 852.5,257.5C 851.148,256.476 849.815,255.476 848.5,254.5C 845.085,251.481 841.751,248.481 838.5,245.5C 844.195,236.139 851.862,228.806 861.5,223.5C 862.184,228.364 864.851,230.198 869.5,229C 872.604,225.425 874.271,221.258 874.5,216.5C 880.366,212.448 886.699,211.615 893.5,214C 894.667,215.167 895.833,216.333 897,217.5C 909.441,245.055 923.941,271.388 940.5,296.5C 937.715,298.568 934.715,299.902 931.5,300.5 Z"/></g>
<g><path style="opacity:1" fill="#ea904c" d="M 838.5,245.5 C 841.751,248.481 845.085,251.481 848.5,254.5C 845.904,259.978 841.57,263.311 835.5,264.5C 835.5,258.5 835.5,252.5 835.5,246.5C 836.391,245.89 837.391,245.557 838.5,245.5 Z"/></g>
<g><path style="opacity:1" fill="#ed9049" d="M 871.5,263.5 C 868.997,265.833 866.331,267.999 863.5,270C 851.122,274.347 838.789,278.681 826.5,283C 825.663,284.011 825.33,285.178 825.5,286.5C 824.262,285.588 822.928,285.421 821.5,286C 818.167,290 814.833,294 811.5,298C 810.551,298.617 809.718,298.451 809,297.5C 807.667,300.167 806.333,300.167 805,297.5C 802.7,299.976 800.867,299.476 799.5,296C 801.242,292.517 803.242,289.184 805.5,286C 797.836,286.151 797.836,284.485 805.5,281C 816.271,278.611 825.938,274.111 834.5,267.5C 835.738,268.412 837.072,268.579 838.5,268C 843.833,265.333 849.167,262.667 854.5,260C 857.715,256.291 860.715,252.458 863.5,248.5C 864.482,247.859 865.482,247.193 866.5,246.5C 870.676,249.088 874.676,251.921 878.5,255C 876.332,257.998 873.999,260.831 871.5,263.5 Z"/></g>
<g><path style="opacity:1" fill="#b9d1dd" d="M 863.5,248.5 C 860.715,252.458 857.715,256.291 854.5,260C 849.167,262.667 843.833,265.333 838.5,268C 837.072,268.579 835.738,268.412 834.5,267.5C 834.263,266.209 834.596,265.209 835.5,264.5C 841.57,263.311 845.904,259.978 848.5,254.5C 849.815,255.476 851.148,256.476 852.5,257.5C 855.954,254.028 859.62,251.028 863.5,248.5 Z"/></g>
<g><path style="opacity:1" fill="#1c7ec8" d="M 931.5,300.5 C 932.714,303.93 934.214,307.264 936,310.5C 936.939,313.764 937.439,317.097 937.5,320.5C 936.717,325.177 935.55,329.843 934,334.5C 933.145,348.988 932.645,363.488 932.5,378C 934.016,406.84 935.682,435.673 937.5,464.5C 934.167,464.5 930.833,464.5 927.5,464.5C 926.833,464.5 926.167,464.5 925.5,464.5C 925.672,463.508 925.338,462.842 924.5,462.5C 924.128,456.268 923.128,450.268 921.5,444.5C 921.768,442.901 921.434,441.568 920.5,440.5C 920.5,440.167 920.5,439.833 920.5,439.5C 920.672,438.508 920.338,437.842 919.5,437.5C 917.512,424.087 915.012,410.753 912,397.5C 911.286,388.504 910.619,379.504 910,370.5C 909.45,363.362 908.283,356.362 906.5,349.5C 901.891,352.11 897.558,355.11 893.5,358.5C 893.167,359.667 892.833,360.833 892.5,362C 897.247,381.078 902.914,399.911 909.5,418.5C 909.376,419.107 909.043,419.44 908.5,419.5C 904.833,419.5 901.167,419.5 897.5,419.5C 896.503,419.53 895.836,419.03 895.5,418C 887.151,398.139 878.151,378.639 868.5,359.5C 878.222,342.799 887.889,326.132 897.5,309.5C 908.482,305.586 919.815,302.586 931.5,300.5 Z"/></g>
<g><path style="opacity:1" fill="#fc9c27" d="M 750.5,427.5 C 746.223,429.782 742.223,432.449 738.5,435.5C 736.833,436.167 735.167,436.833 733.5,437.5C 725.911,430.404 718.745,422.738 712,414.5C 711.055,410.886 710.388,407.219 710,403.5C 708.216,400.997 706.549,400.997 705,403.5C 702.657,400.137 700.323,396.803 698,393.5C 697.5,393.667 697,393.833 696.5,394C 697.554,395.388 697.72,396.888 697,398.5C 696.388,395.968 694.888,395.135 692.5,396C 693.517,397.049 693.684,398.216 693,399.5C 692.107,398.289 691.274,398.289 690.5,399.5C 690.881,401.741 691.048,404.074 691,406.5C 694.234,413.069 698.901,418.402 705,422.5C 706.777,425.059 708.277,427.726 709.5,430.5C 703.445,425.872 696.779,424.705 689.5,427C 683.322,431.349 678.322,436.849 674.5,443.5C 668.916,446.55 664.082,445.55 660,440.5C 652.62,430.91 646.12,420.743 640.5,410C 648.47,404.343 656.47,398.677 664.5,393C 668.752,389.419 672.252,385.252 675,380.5C 675.667,379.167 675.667,377.833 675,376.5C 671.579,374.539 668.079,372.706 664.5,371C 655.706,359.404 656.706,348.737 667.5,339C 680.202,333.177 690.202,336.343 697.5,348.5C 699.898,349.724 702.231,349.558 704.5,348C 709.055,342.445 713.221,336.612 717,330.5C 721.44,321.284 726.107,312.284 731,303.5C 743.582,307.621 754.582,314.288 764,323.5C 764.635,325.635 764.301,327.635 763,329.5C 758.966,332.022 755.299,335.022 752,338.5C 746.487,348.867 747.654,358.367 755.5,367C 763.232,371.612 770.899,371.612 778.5,367C 783.316,362.333 787.649,357.333 791.5,352C 796.169,350.447 799.503,351.78 801.5,356C 791.252,384.733 774.252,408.566 750.5,427.5 Z"/></g>
<g><path style="opacity:1" fill="#dbeff9" d="M 213.5,327.5 C 234.281,328.205 240.947,338.372 233.5,358C 236.62,363.891 235.12,365.058 229,361.5C 215.536,367.225 205.87,363.558 200,350.5C 197.855,338.776 202.355,331.109 213.5,327.5 Z"/></g>
<g><path style="opacity:1" fill="#2abbbe" d="M 208.5,337.5 C 214.5,337.5 220.5,337.5 226.5,337.5C 226.5,343.5 226.5,349.5 226.5,355.5C 220.5,355.5 214.5,355.5 208.5,355.5C 208.5,349.5 208.5,343.5 208.5,337.5 Z"/></g>
<g><path style="opacity:1" fill="#aedaf3" d="M 919.5,437.5 C 914.5,437.5 909.5,437.5 904.5,437.5C 905.919,436.549 907.585,436.216 909.5,436.5C 909.806,433.615 909.473,430.948 908.5,428.5C 908.5,425.5 908.5,422.5 908.5,419.5C 909.043,419.44 909.376,419.107 909.5,418.5C 902.914,399.911 897.247,381.078 892.5,362C 892.833,360.833 893.167,359.667 893.5,358.5C 897.558,355.11 901.891,352.11 906.5,349.5C 908.283,356.362 909.45,363.362 910,370.5C 910.619,379.504 911.286,388.504 912,397.5C 915.012,410.753 917.512,424.087 919.5,437.5 Z"/></g>
<g><path style="opacity:1" fill="#0e2556" d="M 356.5,357.5 C 360.167,357.5 363.833,357.5 367.5,357.5C 396.079,388.415 425.412,418.748 455.5,448.5C 455.725,453.248 455.225,457.915 454,462.5C 447.502,469.141 440.002,471.141 431.5,468.5C 436.364,481.27 432.03,488.77 418.5,491C 416.63,502.371 409.963,507.538 398.5,506.5C 398.195,520.307 391.195,526.473 377.5,525C 371.909,521.414 366.909,517.08 362.5,512C 354.002,512.095 346.335,509.761 339.5,505C 329.965,495.298 320.298,485.798 310.5,476.5C 309.241,472.975 307.241,469.975 304.5,467.5C 303.908,464.873 303.575,462.206 303.5,459.5C 310.145,460.209 310.812,459.042 305.5,456C 314.704,453.828 314.704,452.161 305.5,451C 311.8,448.776 311.8,447.443 305.5,447C 306.665,445.916 307.998,445.083 309.5,444.5C 310.583,443.635 310.749,442.635 310,441.5C 306.214,443.31 302.381,444.977 298.5,446.5C 297.525,444.205 296.192,442.205 294.5,440.5C 294.5,439.833 294.167,439.5 293.5,439.5C 285.531,429.072 287.198,420.572 298.5,414C 301.817,413.502 305.15,413.335 308.5,413.5C 307.909,408.436 308.909,403.769 311.5,399.5C 315.211,396.145 319.544,394.145 324.5,393.5C 325.167,384.167 330.167,379.167 339.5,378.5C 342.461,379.323 345.461,379.99 348.5,380.5C 347.705,376.215 347.372,371.881 347.5,367.5C 349.082,362.916 352.082,359.583 356.5,357.5 Z"/></g>
<g><path style="opacity:1" fill="#a7c9e1" d="M 347.5,367.5 C 347.372,371.881 347.705,376.215 348.5,380.5C 345.461,379.99 342.461,379.323 339.5,378.5C 343.002,375.348 345.668,371.681 347.5,367.5 Z"/></g>
<g><path style="opacity:1" fill="#18385c" d="M 281.5,396.5 C 282.105,406.674 281.105,416.674 278.5,426.5C 278.253,427.713 277.586,428.38 276.5,428.5C 273.302,425.989 269.636,424.655 265.5,424.5C 266.223,419.827 267.057,415.16 268,410.5C 272.516,406.108 276.016,401.108 278.5,395.5C 277.021,391.242 275.855,386.909 275,382.5C 267.953,375.555 261.286,375.889 255,383.5C 253.872,385.345 253.372,387.345 253.5,389.5C 250.266,389.237 248.932,390.737 249.5,394C 249.049,396.879 250.215,398.712 253,399.5C 256.305,406.553 256.138,413.553 252.5,420.5C 250.343,421.05 248.343,421.717 246.5,422.5C 241.497,422.085 237.33,423.752 234,427.5C 233.833,429.167 233.667,430.833 233.5,432.5C 237.456,449.622 241.79,466.622 246.5,483.5C 241.099,486.876 235.433,489.876 229.5,492.5C 226.026,491.598 223.026,489.932 220.5,487.5C 213.254,476.954 208.421,465.287 206,452.5C 204.681,443.201 205.681,434.201 209,425.5C 213.291,418.875 218.624,413.209 225,408.5C 230.585,399.665 235.919,390.665 241,381.5C 244.245,377.802 248.078,374.968 252.5,373C 270.211,370.86 279.877,378.693 281.5,396.5 Z"/></g>
<g><path style="opacity:1" fill="#c07b61" d="M 265.5,424.5 C 266.244,428.119 266.577,431.785 266.5,435.5C 258.887,434.725 254.221,430.558 252.5,423C 250.527,422.505 248.527,422.338 246.5,422.5C 248.343,421.717 250.343,421.05 252.5,420.5C 256.138,413.553 256.305,406.553 253,399.5C 250.215,398.712 249.049,396.879 249.5,394C 248.932,390.737 250.266,389.237 253.5,389.5C 253.372,387.345 253.872,385.345 255,383.5C 261.286,375.889 267.953,375.555 275,382.5C 275.855,386.909 277.021,391.242 278.5,395.5C 276.016,401.108 272.516,406.108 268,410.5C 267.057,415.16 266.223,419.827 265.5,424.5 Z"/></g>
<g><path style="opacity:1" fill="#f39f86" d="M 733.5,437.5 C 734.887,441.208 737.554,443.541 741.5,444.5C 740.396,449.455 739.396,454.455 738.5,459.5C 730.874,456.527 724.541,451.86 719.5,445.5C 718.488,442.883 717.155,441.216 715.5,440.5C 714.007,436.974 712.007,433.641 709.5,430.5C 708.277,427.726 706.777,425.059 705,422.5C 698.901,418.402 694.234,413.069 691,406.5C 691.048,404.074 690.881,401.741 690.5,399.5C 691.274,398.289 692.107,398.289 693,399.5C 693.684,398.216 693.517,397.049 692.5,396C 694.888,395.135 696.388,395.968 697,398.5C 697.72,396.888 697.554,395.388 696.5,394C 697,393.833 697.5,393.667 698,393.5C 700.323,396.803 702.657,400.137 705,403.5C 706.549,400.997 708.216,400.997 710,403.5C 710.388,407.219 711.055,410.886 712,414.5C 718.745,422.738 725.911,430.404 733.5,437.5 Z"/></g>
<g><path style="opacity:1" fill="#1c3b5e" d="M 794.5,439.5 C 793.399,435.148 794.732,431.481 798.5,428.5C 799.452,426.955 799.785,425.288 799.5,423.5C 798.167,423.5 796.833,423.5 795.5,423.5C 795.665,419.818 795.499,416.152 795,412.5C 793.841,409.507 791.675,407.84 788.5,407.5C 786.354,400.294 789.021,397.128 796.5,398C 801.301,401.799 805.801,405.966 810,410.5C 813.265,416.528 813.265,422.528 810,428.5C 804.537,431.809 799.37,435.476 794.5,439.5 Z"/></g>
<g><path style="opacity:1" fill="#b0d6eb" d="M 281.5,396.5 C 282.327,401.985 282.827,407.652 283,413.5C 292.599,408.95 302.099,404.284 311.5,399.5C 308.909,403.769 307.909,408.436 308.5,413.5C 305.15,413.335 301.817,413.502 298.5,414C 287.198,420.572 285.531,429.072 293.5,439.5C 292.345,443.797 290.679,447.797 288.5,451.5C 286.226,442.903 282.226,435.236 276.5,428.5C 277.586,428.38 278.253,427.713 278.5,426.5C 281.105,416.674 282.105,406.674 281.5,396.5 Z"/></g>
<g><path style="opacity:1" fill="#ecd6ce" d="M 263.5,401.5 C 265.75,401.181 267.75,401.681 269.5,403C 266.656,405.29 264.656,404.79 263.5,401.5 Z"/></g>
<g><path style="opacity:1" fill="#f09e88" d="M 788.5,407.5 C 791.675,407.84 793.841,409.507 795,412.5C 795.499,416.152 795.665,419.818 795.5,423.5C 796.833,423.5 798.167,423.5 799.5,423.5C 799.785,425.288 799.452,426.955 798.5,428.5C 794.732,431.481 793.399,435.148 794.5,439.5C 794.5,441.5 794.5,443.5 794.5,445.5C 794.5,446.5 794.5,447.5 794.5,448.5C 789.178,448.02 783.845,447.687 778.5,447.5C 778.942,445.028 779.275,442.528 779.5,440C 774.206,427.027 777.206,416.194 788.5,407.5 Z"/></g>
<g><path style="opacity:1" fill="#e8904f" d="M 897.5,419.5 C 901.167,419.5 904.833,419.5 908.5,419.5C 908.5,422.5 908.5,425.5 908.5,428.5C 904.342,429.539 900.342,429.539 896.5,428.5C 897.159,425.545 897.492,422.545 897.5,419.5 Z"/></g>
<g><path style="opacity:1" fill="#fada22" d="M 246.5,422.5 C 248.527,422.338 250.527,422.505 252.5,423C 254.221,430.558 258.887,434.725 266.5,435.5C 266.577,431.785 266.244,428.119 265.5,424.5C 269.636,424.655 273.302,425.989 276.5,428.5C 282.226,435.236 286.226,442.903 288.5,451.5C 288.586,452.496 288.252,453.329 287.5,454C 278.43,459.632 268.764,463.798 258.5,466.5C 258.415,464.071 257.415,462.071 255.5,460.5C 251.4,462.116 248.066,464.616 245.5,468C 247.126,473.588 249.793,478.588 253.5,483C 255.833,483.667 258.167,483.667 260.5,483C 267.363,479.073 274.03,474.906 280.5,470.5C 281.493,479.318 281.827,488.318 281.5,497.5C 281.647,502.214 281.314,506.881 280.5,511.5C 276.632,512.756 272.632,513.423 268.5,513.5C 260.487,512.884 252.487,512.217 244.5,511.5C 244.082,510.778 243.416,510.278 242.5,510C 244.121,503.565 245.621,497.065 247,490.5C 247.796,487.961 247.629,485.628 246.5,483.5C 241.79,466.622 237.456,449.622 233.5,432.5C 233.667,430.833 233.833,429.167 234,427.5C 237.33,423.752 241.497,422.085 246.5,422.5 Z"/></g>
<g><path style="opacity:1" fill="#f2a28c" d="M 750.5,427.5 C 754.731,435.062 760.064,441.729 766.5,447.5C 759.537,446.255 752.537,445.255 745.5,444.5C 743.828,441.978 742.328,439.312 741,436.5C 740.329,435.748 739.496,435.414 738.5,435.5C 742.223,432.449 746.223,429.782 750.5,427.5 Z"/></g>
<g><path style="opacity:1" fill="#1d315f" d="M 896.5,428.5 C 900.342,429.539 904.342,429.539 908.5,428.5C 909.473,430.948 909.806,433.615 909.5,436.5C 907.585,436.216 905.919,436.549 904.5,437.5C 896.167,437.5 887.833,437.5 879.5,437.5C 879.511,435.983 880.177,434.816 881.5,434C 886.237,431.484 891.237,429.651 896.5,428.5 Z"/></g>
<g><path style="opacity:1" fill="#c2dbea" d="M 738.5,435.5 C 739.496,435.414 740.329,435.748 741,436.5C 742.328,439.312 743.828,441.978 745.5,444.5C 744.167,444.5 742.833,444.5 741.5,444.5C 737.554,443.541 734.887,441.208 733.5,437.5C 735.167,436.833 736.833,436.167 738.5,435.5 Z"/></g>
<g><path style="opacity:1" fill="#dbf0f9" d="M 608.5,437.5 C 628.471,438.108 634.971,447.774 628,466.5C 620.771,474.875 612.271,476.541 602.5,471.5C 600.668,472.248 599.001,473.248 597.5,474.5C 596.065,466.689 595.232,458.689 595,450.5C 598.076,444.589 602.576,440.255 608.5,437.5 Z"/></g>
<g><path style="opacity:1" fill="#17b8bc" d="M 920.5,439.5 C 920.5,439.833 920.5,440.167 920.5,440.5C 920.5,442.167 920.5,443.833 920.5,445.5C 907.167,445.5 893.833,445.5 880.5,445.5C 880.5,443.167 880.5,440.833 880.5,438.5C 893.913,438.186 907.246,438.519 920.5,439.5 Z"/></g>
<g><path style="opacity:1" fill="#c07c62" d="M 293.5,439.5 C 294.167,439.5 294.5,439.833 294.5,440.5C 293.908,443.127 293.575,445.794 293.5,448.5C 295.553,448.598 297.22,447.931 298.5,446.5C 302.381,444.977 306.214,443.31 310,441.5C 310.749,442.635 310.583,443.635 309.5,444.5C 307.998,445.083 306.665,445.916 305.5,447C 311.8,447.443 311.8,448.776 305.5,451C 314.704,452.161 314.704,453.828 305.5,456C 310.812,459.042 310.145,460.209 303.5,459.5C 300.813,459.336 298.146,459.503 295.5,460C 293.68,460.2 292.347,461.034 291.5,462.5C 288.527,464.147 285.86,466.147 283.5,468.5C 281.973,468.427 280.973,469.094 280.5,470.5C 274.03,474.906 267.363,479.073 260.5,483C 258.167,483.667 255.833,483.667 253.5,483C 249.793,478.588 247.126,473.588 245.5,468C 248.066,464.616 251.4,462.116 255.5,460.5C 257.415,462.071 258.415,464.071 258.5,466.5C 268.764,463.798 278.43,459.632 287.5,454C 288.252,453.329 288.586,452.496 288.5,451.5C 290.679,447.797 292.345,443.797 293.5,439.5 Z"/></g>
<g><path style="opacity:1" fill="#f9a646" d="M 719.5,445.5 C 718.292,446.234 716.959,446.567 715.5,446.5C 715.5,444.5 715.5,442.5 715.5,440.5C 717.155,441.216 718.488,442.883 719.5,445.5 Z"/></g>
<g><path style="opacity:1" fill="#b6c6d4" d="M 294.5,440.5 C 296.192,442.205 297.525,444.205 298.5,446.5C 297.22,447.931 295.553,448.598 293.5,448.5C 293.575,445.794 293.908,443.127 294.5,440.5 Z"/></g>
<g><path style="opacity:1" fill="#fcfcfd" d="M 741.5,444.5 C 742.833,444.5 744.167,444.5 745.5,444.5C 752.537,445.255 759.537,446.255 766.5,447.5C 770.5,447.5 774.5,447.5 778.5,447.5C 783.845,447.687 789.178,448.02 794.5,448.5C 794.5,447.5 794.5,446.5 794.5,445.5C 795.434,446.568 795.768,447.901 795.5,449.5C 811.461,451.854 816.295,460.52 810,475.5C 807.597,477.305 805.93,479.638 805,482.5C 802.228,491.378 798.895,500.045 795,508.5C 793.672,523.133 793.172,537.8 793.5,552.5C 792.209,552.263 791.209,552.596 790.5,553.5C 776.19,555.787 761.857,555.954 747.5,554C 744.473,552.487 741.473,550.987 738.5,549.5C 737.196,522.682 742.196,497.016 753.5,472.5C 749.295,470.231 744.962,468.231 740.5,466.5C 738.829,464.49 738.162,462.157 738.5,459.5C 739.396,454.455 740.396,449.455 741.5,444.5 Z"/></g>
<g><path style="opacity:1" fill="#66bec4" d="M 879.5,437.5 C 887.833,437.5 896.167,437.5 904.5,437.5C 909.5,437.5 914.5,437.5 919.5,437.5C 920.338,437.842 920.672,438.508 920.5,439.5C 907.246,438.519 893.913,438.186 880.5,438.5C 880.5,440.833 880.5,443.167 880.5,445.5C 893.833,445.5 907.167,445.5 920.5,445.5C 920.5,443.833 920.5,442.167 920.5,440.5C 921.434,441.568 921.768,442.901 921.5,444.5C 910.549,446.478 899.216,447.144 887.5,446.5C 888.098,451.813 888.431,457.146 888.5,462.5C 900.5,462.5 912.5,462.5 924.5,462.5C 925.338,462.842 925.672,463.508 925.5,464.5C 913.833,464.5 902.167,464.5 890.5,464.5C 891.84,477.539 893.506,490.539 895.5,503.5C 903.5,503.5 911.5,503.5 919.5,503.5C 920.496,496.199 921.163,488.866 921.5,481.5C 922.5,481.5 923.5,481.5 924.5,481.5C 923.5,488.833 922.5,496.167 921.5,503.5C 927.5,503.5 933.5,503.5 939.5,503.5C 938.354,496.183 937.354,488.85 936.5,481.5C 937.167,481.5 937.833,481.5 938.5,481.5C 950.382,554.79 962.048,628.123 973.5,701.5C 973.167,702.5 972.833,703.5 972.5,704.5C 970.074,693.61 968.407,682.61 967.5,671.5C 953.167,671.5 938.833,671.5 924.5,671.5C 925.669,681.014 927.002,690.514 928.5,700C 928.337,705.644 927.503,705.477 926,699.5C 920.163,663.474 914.163,627.474 908,591.5C 901.417,629.159 894.75,666.825 888,704.5C 887.806,693.503 888.973,682.67 891.5,672C 877.155,671.167 862.822,671.334 848.5,672.5C 846.99,683.218 845.157,693.885 843,704.5C 842.336,697.459 842.669,690.459 844,683.5C 857.484,604.597 870.317,525.597 882.5,446.5C 881.5,446.5 880.5,446.5 879.5,446.5C 879.5,443.5 879.5,440.5 879.5,437.5 Z"/></g>
<g><path style="opacity:1" fill="#b1ddf4" d="M 921.5,444.5 C 923.128,450.268 924.128,456.268 924.5,462.5C 912.5,462.5 900.5,462.5 888.5,462.5C 888.431,457.146 888.098,451.813 887.5,446.5C 899.216,447.144 910.549,446.478 921.5,444.5 Z"/></g>
<g><path style="opacity:1" fill="#21babd" d="M 604.5,447.5 C 610.167,447.5 615.833,447.5 621.5,447.5C 621.5,453.167 621.5,458.833 621.5,464.5C 615.833,464.5 610.167,464.5 604.5,464.5C 604.5,458.833 604.5,453.167 604.5,447.5 Z"/></g>
<g><path style="opacity:1" fill="#b7d4e7" d="M 303.5,459.5 C 303.575,462.206 303.908,464.873 304.5,467.5C 301.819,467.462 299.319,468.129 297,469.5C 294.747,468.623 292.581,467.623 290.5,466.5C 291.234,465.292 291.567,463.959 291.5,462.5C 292.347,461.034 293.68,460.2 295.5,460C 298.146,459.503 300.813,459.336 303.5,459.5 Z"/></g>
<g><path style="opacity:1" fill="#f2d14b" d="M 291.5,462.5 C 291.567,463.959 291.234,465.292 290.5,466.5C 288.079,466.878 285.746,467.545 283.5,468.5C 285.86,466.147 288.527,464.147 291.5,462.5 Z"/></g>
<g><path style="opacity:1" fill="#b1ddf3" d="M 881.5,464.5 C 883.792,464.244 885.959,464.577 888,465.5C 889.999,478.157 891.832,490.824 893.5,503.5C 887.833,503.5 882.167,503.5 876.5,503.5C 877.986,490.485 879.653,477.485 881.5,464.5 Z"/></g>
<g><path style="opacity:1" fill="#b2ddf4" d="M 925.5,464.5 C 926.167,464.5 926.833,464.5 927.5,464.5C 927.66,466.199 927.494,467.866 927,469.5C 925.519,470.471 924.685,471.804 924.5,473.5C 918.957,474.343 913.957,476.343 909.5,479.5C 908.957,479.56 908.624,479.893 908.5,480.5C 912.783,481.492 917.116,481.826 921.5,481.5C 921.163,488.866 920.496,496.199 919.5,503.5C 911.5,503.5 903.5,503.5 895.5,503.5C 893.506,490.539 891.84,477.539 890.5,464.5C 902.167,464.5 913.833,464.5 925.5,464.5 Z"/></g>
<g><path style="opacity:1" fill="#e38f51" d="M 927.5,464.5 C 930.833,464.5 934.167,464.5 937.5,464.5C 937.425,467.206 937.092,469.873 936.5,472.5C 932.566,473.36 928.566,473.693 924.5,473.5C 924.685,471.804 925.519,470.471 927,469.5C 927.494,467.866 927.66,466.199 927.5,464.5 Z"/></g>
<g><path style="opacity:1" fill="#c27d63" d="M 290.5,466.5 C 292.581,467.623 294.747,468.623 297,469.5C 299.319,468.129 301.819,467.462 304.5,467.5C 307.241,469.975 309.241,472.975 310.5,476.5C 306.353,479.075 302.02,481.409 297.5,483.5C 292.55,481.628 287.55,479.961 282.5,478.5C 282.46,475.119 282.793,471.786 283.5,468.5C 285.746,467.545 288.079,466.878 290.5,466.5 Z"/></g>
<g><path style="opacity:1" fill="#d72d2b" d="M 600.5,523.5 C 599.163,520.009 597.163,516.843 594.5,514C 590.27,512.71 585.936,512.21 581.5,512.5C 579.046,510.316 578.046,507.483 578.5,504C 578.841,498.485 580.007,493.318 582,488.5C 579.931,487.736 577.764,487.236 575.5,487C 574.167,485 572.833,483 571.5,481C 567.003,480.271 562.67,480.771 558.5,482.5C 558.815,486.371 558.482,490.038 557.5,493.5C 550.875,483.568 552.209,475.068 561.5,468C 565.072,466.595 568.739,466.262 572.5,467C 576.327,468.746 579.993,470.746 583.5,473C 584.921,477.174 586.421,481.341 588,485.5C 590.374,487.539 592.374,489.872 594,492.5C 594.333,497.5 594.667,502.5 595,507.5C 596.667,509.833 598.333,512.167 600,514.5C 600.498,517.482 600.665,520.482 600.5,523.5 Z"/></g>
<g><path style="opacity:1" fill="#1e3261" d="M 936.5,472.5 C 937.75,472.577 938.583,473.244 939,474.5C 939.789,476.712 939.622,478.712 938.5,480.5C 928.652,480.827 918.986,480.494 909.5,479.5C 913.957,476.343 918.957,474.343 924.5,473.5C 928.566,473.693 932.566,473.36 936.5,472.5 Z"/></g>
<g><path style="opacity:1" fill="#e1d696" d="M 283.5,468.5 C 282.793,471.786 282.46,475.119 282.5,478.5C 282.823,485.022 282.49,491.355 281.5,497.5C 281.827,488.318 281.493,479.318 280.5,470.5C 280.973,469.094 281.973,468.427 283.5,468.5 Z"/></g>
<g><path style="opacity:1" fill="#587a9e" d="M 909.5,479.5 C 918.986,480.494 928.652,480.827 938.5,480.5C 938.5,480.833 938.5,481.167 938.5,481.5C 937.833,481.5 937.167,481.5 936.5,481.5C 932.5,481.5 928.5,481.5 924.5,481.5C 923.5,481.5 922.5,481.5 921.5,481.5C 917.116,481.826 912.783,481.492 908.5,480.5C 908.624,479.893 908.957,479.56 909.5,479.5 Z"/></g>
<g><path style="opacity:1" fill="#f1a08f" d="M 581.5,512.5 C 577.726,513.306 575.226,515.639 574,519.5C 572.181,522.257 569.848,523.257 567,522.5C 566.501,518.848 566.335,515.182 566.5,511.5C 567.573,510.749 567.74,509.749 567,508.5C 563.245,503.904 560.079,498.904 557.5,493.5C 558.482,490.038 558.815,486.371 558.5,482.5C 562.67,480.771 567.003,480.271 571.5,481C 572.833,483 574.167,485 575.5,487C 577.764,487.236 579.931,487.736 582,488.5C 580.007,493.318 578.841,498.485 578.5,504C 578.046,507.483 579.046,510.316 581.5,512.5 Z"/></g>
<g><path style="opacity:1" fill="#b1def4" d="M 924.5,481.5 C 928.5,481.5 932.5,481.5 936.5,481.5C 937.354,488.85 938.354,496.183 939.5,503.5C 933.5,503.5 927.5,503.5 921.5,503.5C 922.5,496.167 923.5,488.833 924.5,481.5 Z"/></g>
<g><path style="opacity:1" fill="#b5dff5" d="M 246.5,483.5 C 247.629,485.628 247.796,487.961 247,490.5C 245.621,497.065 244.121,503.565 242.5,510C 243.416,510.278 244.082,510.778 244.5,511.5C 242.983,511.511 241.816,512.177 241,513.5C 237.784,519.264 235.117,525.264 233,531.5C 232.667,551.167 232.333,570.833 232,590.5C 228.803,602.235 224.469,613.568 219,624.5C 216.234,641.233 212.067,657.566 206.5,673.5C 207.325,674.386 208.325,674.719 209.5,674.5C 208.672,680.145 208.006,685.812 207.5,691.5C 206.728,695.452 206.395,699.452 206.5,703.5C 194.674,704.66 182.674,704.826 170.5,704C 156.502,700.778 143.169,695.778 130.5,689C 102.583,673.739 76.9159,655.405 53.5,634C 35.455,617.623 19.955,599.123 7,578.5C -0.857357,555.053 7.30931,540.553 31.5,535C 58.6784,529.47 86.0117,524.804 113.5,521C 150.611,514.308 186.278,503.141 220.5,487.5C 223.026,489.932 226.026,491.598 229.5,492.5C 235.433,489.876 241.099,486.876 246.5,483.5 Z"/></g>
<g><path style="opacity:1" fill="#b3def5" d="M 875.5,505.5 C 881.955,505.15 888.289,505.817 894.5,507.5C 897.244,519.708 899.244,532.041 900.5,544.5C 890.167,544.5 879.833,544.5 869.5,544.5C 870.779,531.353 872.779,518.353 875.5,505.5 Z"/></g>
<g><path style="opacity:1" fill="#b2def5" d="M 897.5,505.5 C 904.524,505.435 911.524,505.768 918.5,506.5C 916.501,519.156 914.501,531.823 912.5,544.5C 909.167,544.5 905.833,544.5 902.5,544.5C 900.739,531.51 899.073,518.51 897.5,505.5 Z"/></g>
<g><path style="opacity:1" fill="#b4def5" d="M 920.5,505.5 C 927.167,505.5 933.833,505.5 940.5,505.5C 942.085,518.511 943.751,531.511 945.5,544.5C 935.5,544.5 925.5,544.5 915.5,544.5C 917.276,531.511 918.943,518.511 920.5,505.5 Z"/></g>
<g><path style="opacity:1" fill="#0f2757" d="M 244.5,511.5 C 252.487,512.217 260.487,512.884 268.5,513.5C 272.632,513.423 276.632,512.756 280.5,511.5C 281.117,511.611 281.617,511.944 282,512.5C 283.462,522.46 283.795,532.46 283,542.5C 277.569,588.409 273.069,634.409 269.5,680.5C 266.214,681.207 262.881,681.54 259.5,681.5C 258.5,681.5 257.5,681.5 256.5,681.5C 255.904,663.667 255.237,645.834 254.5,628C 254.534,620.629 255.701,613.462 258,606.5C 258.667,599.167 258.667,591.833 258,584.5C 246.921,614.072 235.254,643.405 223,672.5C 222.623,673.942 221.79,674.942 220.5,675.5C 216.846,675.058 213.179,674.724 209.5,674.5C 208.325,674.719 207.325,674.386 206.5,673.5C 212.067,657.566 216.234,641.233 219,624.5C 224.469,613.568 228.803,602.235 232,590.5C 232.333,570.833 232.667,551.167 233,531.5C 235.117,525.264 237.784,519.264 241,513.5C 241.816,512.177 242.983,511.511 244.5,511.5 Z"/></g>
<g><path style="opacity:1" fill="#122756" d="M 566.5,511.5 C 566.335,515.182 566.501,518.848 567,522.5C 569.848,523.257 572.181,522.257 574,519.5C 575.226,515.639 577.726,513.306 581.5,512.5C 585.936,512.21 590.27,512.71 594.5,514C 597.163,516.843 599.163,520.009 600.5,523.5C 601.29,530.471 601.623,537.471 601.5,544.5C 601.665,547.518 601.498,550.518 601,553.5C 600.722,554.416 600.222,555.082 599.5,555.5C 595.167,555.5 590.833,555.5 586.5,555.5C 586.167,560.833 585.833,566.167 585.5,571.5C 579.833,571.5 574.167,571.5 568.5,571.5C 565.649,563.949 562.315,556.449 558.5,549C 553.177,548.501 547.844,548.334 542.5,548.5C 542.773,538.076 545.273,528.076 550,518.5C 553.939,512.79 559.439,510.456 566.5,511.5 Z"/></g>
<g><path style="opacity:1" fill="#d73935" d="M 601.5,544.5 C 603.223,546.253 604.723,548.253 606,550.5C 609.659,559.825 607.159,566.825 598.5,571.5C 599.4,566.228 599.733,560.895 599.5,555.5C 600.222,555.082 600.722,554.416 601,553.5C 601.498,550.518 601.665,547.518 601.5,544.5 Z"/></g>
<g><path style="opacity:1" fill="#b3def5" d="M 869.5,547.5 C 880.167,547.5 890.833,547.5 901.5,547.5C 902.678,558.07 904.345,568.57 906.5,579C 906.275,581.528 905.942,584.028 905.5,586.5C 891.5,586.5 877.5,586.5 863.5,586.5C 864.315,573.281 866.315,560.281 869.5,547.5 Z"/></g>
<g><path style="opacity:1" fill="#afddf3" d="M 904.5,547.5 C 906.833,547.5 909.167,547.5 911.5,547.5C 909.138,576.776 906.805,576.776 904.5,547.5 Z"/></g>
<g><path style="opacity:1" fill="#b4def5" d="M 914.5,547.5 C 925.254,547.059 935.921,547.725 946.5,549.5C 949.473,561.672 951.473,574.005 952.5,586.5C 938.484,586.833 924.484,586.499 910.5,585.5C 909.394,581.223 909.228,576.89 910,572.5C 911.641,564.174 913.141,555.841 914.5,547.5 Z"/></g>
<g><path style="opacity:1" fill="#030306" d="M 542.5,548.5 C 547.844,548.334 553.177,548.501 558.5,549C 562.315,556.449 565.649,563.949 568.5,571.5C 569.562,574.516 570.729,577.516 572,580.5C 574.756,581.07 577.256,582.07 579.5,583.5C 585.5,584.167 591.5,584.833 597.5,585.5C 573.167,585.5 548.833,585.5 524.5,585.5C 519.953,574.736 515.119,564.069 510,553.5C 509.333,552.167 509.333,550.833 510,549.5C 520.752,548.513 531.585,548.18 542.5,548.5 Z"/></g>
<g><path style="opacity:1" fill="#0e2657" d="M 738.5,549.5 C 741.473,550.987 744.473,552.487 747.5,554C 761.857,555.954 776.19,555.787 790.5,553.5C 791.65,558.316 791.816,563.316 791,568.5C 785.303,588.925 778.803,609.092 771.5,629C 778.47,648.077 785.137,667.244 791.5,686.5C 787.167,686.5 782.833,686.5 778.5,686.5C 768.108,668.725 757.941,650.725 748,632.5C 749.985,622.56 751.651,612.56 753,602.5C 747.333,610.5 741.667,618.5 736,626.5C 734.443,629.172 733.276,632.005 732.5,635C 736.83,652.989 742.164,670.656 748.5,688C 747.552,688.483 746.552,688.649 745.5,688.5C 741.167,688.5 736.833,688.5 732.5,688.5C 723.227,669.622 714.227,650.622 705.5,631.5C 715.201,605.624 725.034,579.957 735,554.5C 735.737,552.404 736.903,550.737 738.5,549.5 Z"/></g>
<g><path style="opacity:1" fill="#f0a08e" d="M 599.5,555.5 C 599.733,560.895 599.4,566.228 598.5,571.5C 597.226,573.993 596.56,576.659 596.5,579.5C 595.751,580.531 595.085,581.698 594.5,583C 589.511,583.499 584.511,583.666 579.5,583.5C 577.256,582.07 574.756,581.07 572,580.5C 570.729,577.516 569.562,574.516 568.5,571.5C 574.167,571.5 579.833,571.5 585.5,571.5C 585.833,566.167 586.167,560.833 586.5,555.5C 590.833,555.5 595.167,555.5 599.5,555.5 Z"/></g>
<g><path style="opacity:1" fill="#d9d9d9" d="M 536.5,564.5 C 539.91,564.384 541.244,566.05 540.5,569.5C 539.167,569.5 537.833,569.5 536.5,569.5C 536.5,567.833 536.5,566.167 536.5,564.5 Z"/></g>
<g><path style="opacity:1" fill="#393744" d="M 596.5,579.5 C 597.458,581.302 598.125,583.302 598.5,585.5C 598.167,585.5 597.833,585.5 597.5,585.5C 591.5,584.833 585.5,584.167 579.5,583.5C 584.511,583.666 589.511,583.499 594.5,583C 595.085,581.698 595.751,580.531 596.5,579.5 Z"/></g>
<g><path style="opacity:1" fill="#112656" d="M 524.5,585.5 C 548.833,585.5 573.167,585.5 597.5,585.5C 597.833,585.5 598.167,585.5 598.5,585.5C 599.379,593.609 598.045,601.276 594.5,608.5C 587.543,609.386 580.543,609.72 573.5,609.5C 572.411,629.496 571.411,649.496 570.5,669.5C 566.486,669.666 562.486,669.499 558.5,669C 557.047,667.351 556.047,665.518 555.5,663.5C 554.952,645.161 554.286,626.828 553.5,608.5C 548.5,608.5 543.5,608.5 538.5,608.5C 541.102,625.386 542.435,642.386 542.5,659.5C 542.5,662.833 542.5,666.167 542.5,669.5C 538.5,669.5 534.5,669.5 530.5,669.5C 524.679,647.041 517.679,625.041 509.5,603.5C 508.677,592.656 513.677,586.656 524.5,585.5 Z"/></g>
<g><path style="opacity:1" fill="#b4ddf3" d="M 259.5,681.5 C 259.779,686.595 259.445,691.595 258.5,696.5C 257.2,699.321 257.533,701.988 259.5,704.5C 245.167,704.5 230.833,704.5 216.5,704.5C 217.36,700.566 217.693,696.566 217.5,692.5C 218.392,686.812 219.392,681.146 220.5,675.5C 221.79,674.942 222.623,673.942 223,672.5C 235.254,643.405 246.921,614.072 258,584.5C 258.667,591.833 258.667,599.167 258,606.5C 255.701,613.462 254.534,620.629 254.5,628C 255.237,645.834 255.904,663.667 256.5,681.5C 257.5,681.5 258.5,681.5 259.5,681.5 Z"/></g>
<g><path style="opacity:1" fill="#b3dff5" d="M 862.5,588.5 C 876.833,588.5 891.167,588.5 905.5,588.5C 902.53,601.323 900.53,614.323 899.5,627.5C 885.167,627.5 870.833,627.5 856.5,627.5C 857.78,614.343 859.78,601.343 862.5,588.5 Z"/></g>
<g><path style="opacity:1" fill="#b2dff4" d="M 910.5,588.5 C 924.837,588.333 939.171,588.5 953.5,589C 956.192,602.025 958.192,615.191 959.5,628.5C 945.167,628.5 930.833,628.5 916.5,628.5C 914.933,615.096 912.933,601.763 910.5,588.5 Z"/></g>
<g><path style="opacity:1" fill="#fa9d1f" d="M 509.5,603.5 C 517.679,625.041 524.679,647.041 530.5,669.5C 530.842,670.338 531.508,670.672 532.5,670.5C 531.752,672.332 530.752,673.999 529.5,675.5C 523.915,675.862 518.749,677.528 514,680.5C 513.517,681.448 513.351,682.448 513.5,683.5C 524.5,683.5 535.5,683.5 546.5,683.5C 546.595,680.308 545.929,677.308 544.5,674.5C 544.567,673.041 544.234,671.708 543.5,670.5C 543.815,666.629 543.482,662.962 542.5,659.5C 542.435,642.386 541.102,625.386 538.5,608.5C 543.5,608.5 548.5,608.5 553.5,608.5C 554.286,626.828 554.952,645.161 555.5,663.5C 555.756,667.269 555.423,670.936 554.5,674.5C 551.588,676.958 550.922,679.958 552.5,683.5C 557.933,686.015 563.267,685.682 568.5,682.5C 569.8,679.691 569.8,677.024 568.5,674.5C 568.461,673.417 568.127,672.417 567.5,671.5C 568.602,670.824 569.602,670.158 570.5,669.5C 571.411,649.496 572.411,629.496 573.5,609.5C 580.543,609.72 587.543,609.386 594.5,608.5C 619.045,612.102 630.712,626.269 629.5,651C 629.01,669.18 628.343,687.347 627.5,705.5C 611.5,705.5 595.5,705.5 579.5,705.5C 577.785,696.791 572.452,692.457 563.5,692.5C 555.048,692.957 550.048,697.29 548.5,705.5C 532.833,705.5 517.167,705.5 501.5,705.5C 501.666,699.158 501.5,692.825 501,686.5C 498.663,681.405 494.663,679.072 489,679.5C 483.278,681.263 477.444,681.763 471.5,681C 466.42,677.602 463.42,672.936 462.5,667C 464.314,651.191 472.647,646.191 487.5,652C 494.106,654.003 499.272,652.17 503,646.5C 504.074,632.506 505.074,618.506 506,604.5C 507.011,603.663 508.178,603.33 509.5,603.5 Z"/></g>
<g><path style="opacity:1" fill="#b2dbf2" d="M 778.5,686.5 C 779.818,690.274 779.485,693.941 777.5,697.5C 769.963,698.365 763.296,701.032 757.5,705.5C 754.167,705.5 750.833,705.5 747.5,705.5C 747.663,703.143 747.497,700.81 747,698.5C 746.617,697.944 746.117,697.611 745.5,697.5C 745.5,694.5 745.5,691.5 745.5,688.5C 746.552,688.649 747.552,688.483 748.5,688C 742.164,670.656 736.83,652.989 732.5,635C 733.276,632.005 734.443,629.172 736,626.5C 741.667,618.5 747.333,610.5 753,602.5C 751.651,612.56 749.985,622.56 748,632.5C 757.941,650.725 768.108,668.725 778.5,686.5 Z"/></g>
<g><path style="opacity:1" fill="#b4def5" d="M 854.5,630.5 C 868.833,630.5 883.167,630.5 897.5,630.5C 895.761,643.481 894.095,656.481 892.5,669.5C 878.167,669.5 863.833,669.5 849.5,669.5C 850.801,656.457 852.468,643.457 854.5,630.5 Z"/></g>
<g><path style="opacity:1" fill="#b4def5" d="M 917.5,630.5 C 931.833,630.5 946.167,630.5 960.5,630.5C 962.221,643.217 964.221,655.884 966.5,668.5C 951.848,669.499 937.182,669.833 922.5,669.5C 921.3,656.435 919.634,643.435 917.5,630.5 Z"/></g>
<g><path style="opacity:1" fill="#927d7e" d="M 542.5,659.5 C 543.482,662.962 543.815,666.629 543.5,670.5C 539.833,670.5 536.167,670.5 532.5,670.5C 531.508,670.672 530.842,670.338 530.5,669.5C 534.5,669.5 538.5,669.5 542.5,669.5C 542.5,666.167 542.5,662.833 542.5,659.5 Z"/></g>
<g><path style="opacity:1" fill="#e59b88" d="M 555.5,663.5 C 556.047,665.518 557.047,667.351 558.5,669C 562.486,669.499 566.486,669.666 570.5,669.5C 569.602,670.158 568.602,670.824 567.5,671.5C 568.127,672.417 568.461,673.417 568.5,674.5C 563.833,675.833 559.167,675.833 554.5,674.5C 555.423,670.936 555.756,667.269 555.5,663.5 Z"/></g>
<g><path style="opacity:1" fill="#f39e89" d="M 532.5,670.5 C 536.167,670.5 539.833,670.5 543.5,670.5C 544.234,671.708 544.567,673.041 544.5,674.5C 539.636,676.67 534.636,677.003 529.5,675.5C 530.752,673.999 531.752,672.332 532.5,670.5 Z"/></g>
<g><path style="opacity:1" fill="#c27b63" d="M 209.5,674.5 C 213.179,674.724 216.846,675.058 220.5,675.5C 219.392,681.146 218.392,686.812 217.5,692.5C 214.098,692.658 210.764,692.324 207.5,691.5C 208.006,685.812 208.672,680.145 209.5,674.5 Z"/></g>
<g><path style="opacity:1" fill="#db342b" d="M 554.5,674.5 C 559.167,675.833 563.833,675.833 568.5,674.5C 569.8,677.024 569.8,679.691 568.5,682.5C 563.267,685.682 557.933,686.015 552.5,683.5C 550.922,679.958 551.588,676.958 554.5,674.5 Z"/></g>
<g><path style="opacity:1" fill="#db372d" d="M 544.5,674.5 C 545.929,677.308 546.595,680.308 546.5,683.5C 535.5,683.5 524.5,683.5 513.5,683.5C 513.351,682.448 513.517,681.448 514,680.5C 518.749,677.528 523.915,675.862 529.5,675.5C 534.636,677.003 539.636,676.67 544.5,674.5 Z"/></g>
<g><path style="opacity:1" fill="#c47c66" d="M 269.5,680.5 C 268.212,687.228 270.212,692.562 275.5,696.5C 269.833,696.5 264.167,696.5 258.5,696.5C 259.445,691.595 259.779,686.595 259.5,681.5C 262.881,681.54 266.214,681.207 269.5,680.5 Z"/></g>
<g><path style="opacity:1" fill="#e29989" d="M 778.5,686.5 C 782.833,686.5 787.167,686.5 791.5,686.5C 791.5,690.167 791.5,693.833 791.5,697.5C 786.787,698.709 782.121,698.709 777.5,697.5C 779.485,693.941 779.818,690.274 778.5,686.5 Z"/></g>
<g><path style="opacity:1" fill="#eb9d8a" d="M 732.5,688.5 C 736.833,688.5 741.167,688.5 745.5,688.5C 745.5,691.5 745.5,694.5 745.5,697.5C 740.151,698.671 734.818,698.671 729.5,697.5C 731.871,695.003 732.871,692.003 732.5,688.5 Z"/></g>
<g><path style="opacity:1" fill="#d83733" d="M 207.5,691.5 C 210.764,692.324 214.098,692.658 217.5,692.5C 217.693,696.566 217.36,700.566 216.5,704.5C 216.5,704.833 216.5,705.167 216.5,705.5C 213.5,705.5 210.5,705.5 207.5,705.5C 207.672,704.508 207.338,703.842 206.5,703.5C 206.395,699.452 206.728,695.452 207.5,691.5 Z"/></g>
<g><path style="opacity:1" fill="#b8ddef" d="M 579.5,705.5 C 569.167,705.5 558.833,705.5 548.5,705.5C 550.048,697.29 555.048,692.957 563.5,692.5C 572.452,692.457 577.785,696.791 579.5,705.5 Z"/></g>
<g><path style="opacity:1" fill="#d7302d" d="M 258.5,696.5 C 264.167,696.5 269.833,696.5 275.5,696.5C 280.685,698.594 285.685,700.928 290.5,703.5C 280.347,704.494 270.014,704.828 259.5,704.5C 257.533,701.988 257.2,699.321 258.5,696.5 Z"/></g>
<g><path style="opacity:1" fill="#162b5b" d="M 729.5,697.5 C 734.818,698.671 740.151,698.671 745.5,697.5C 746.117,697.611 746.617,697.944 747,698.5C 747.497,700.81 747.663,703.143 747.5,705.5C 735.5,705.5 723.5,705.5 711.5,705.5C 716.71,701.344 722.71,698.677 729.5,697.5 Z"/></g>
<g><path style="opacity:1" fill="#132859" d="M 777.5,697.5 C 782.121,698.709 786.787,698.709 791.5,697.5C 793.223,699.78 793.889,702.447 793.5,705.5C 781.5,705.5 769.5,705.5 757.5,705.5C 763.296,701.032 769.963,698.365 777.5,697.5 Z"/></g>
<g><path style="opacity:1" fill="#ebeaf0" d="M 290.5,703.5 C 291.338,703.842 291.672,704.508 291.5,705.5C 266.5,705.5 241.5,705.5 216.5,705.5C 216.5,705.167 216.5,704.833 216.5,704.5C 230.833,704.5 245.167,704.5 259.5,704.5C 270.014,704.828 280.347,704.494 290.5,703.5 Z"/></g>
</svg>
