<?xml version="1.0" encoding="UTF-8"?>
<svg xmlns="http://www.w3.org/2000/svg" xmlns:xlink="http://www.w3.org/1999/xlink" width="30px" height="30px" viewBox="0 0 30 30" version="1.1">
<g id="surface1">
<path style=" stroke:none;fill-rule:nonzero;fill:rgb(100%,100%,100%);fill-opacity:1;" d="M 30 15 C 30 23.285156 23.285156 30 15 30 C 6.714844 30 0 23.285156 0 15 C 0 6.714844 6.714844 0 15 0 C 23.285156 0 30 6.714844 30 15 Z M 30 15 "/>
<path style="fill:none;stroke-width:3;stroke-linecap:butt;stroke-linejoin:miter;stroke:rgb(43.921569%,43.921569%,43.921569%);stroke-opacity:1;stroke-miterlimit:4;" d="M 33.500651 17.5 C 33.500651 26.336589 26.336589 33.500651 17.5 33.500651 C 8.663411 33.500651 1.499349 26.336589 1.499349 17.5 C 1.499349 8.663411 8.663411 1.499349 17.5 1.499349 C 26.336589 1.499349 33.500651 8.663411 33.500651 17.5 Z M 33.500651 17.5 " transform="matrix(0.857143,0,0,0.857143,0,0)"/>
<path style=" stroke:none;fill-rule:nonzero;fill:rgb(43.921569%,43.921569%,43.921569%);fill-opacity:1;" d="M 11.988281 22.792969 L 5.882812 16.472656 C 5.519531 16.085938 5.519531 15.484375 5.882812 15.101562 L 7.210938 13.730469 C 7.386719 13.546875 7.625 13.445312 7.875 13.445312 C 8.125 13.445312 8.367188 13.546875 8.539062 13.730469 L 12.652344 17.984375 L 21.460938 8.859375 C 21.632812 8.675781 21.871094 8.574219 22.125 8.574219 C 22.375 8.574219 22.613281 8.675781 22.789062 8.859375 L 24.113281 10.230469 C 24.480469 10.617188 24.480469 11.21875 24.113281 11.601562 L 13.316406 22.792969 C 13.144531 22.972656 12.902344 23.078125 12.652344 23.078125 C 12.402344 23.078125 12.160156 22.972656 11.988281 22.792969 Z M 11.988281 22.792969 "/>
</g>
</svg>
