<svg xmlns="http://www.w3.org/2000/svg" width="40" height="40" viewBox="0 0 40 40">
  <g id="Gruppe_14" data-name="Gruppe 14" transform="translate(-1063 -398.645)">
    <rect id="Rechteck_2" data-name="Rechteck 2" width="40" height="40" rx="20" transform="translate(1063 398.645)" fill="#0c2556"/>
    <path id="Icon_awesome-check" data-name="Icon awesome-check" d="M7.812,21.392.337,13.917a1.15,1.15,0,0,1,0-1.626l1.626-1.626a1.15,1.15,0,0,1,1.626,0L8.625,15.7,19.411,4.914a1.15,1.15,0,0,1,1.626,0L22.663,6.54a1.15,1.15,0,0,1,0,1.626L9.438,21.392A1.15,1.15,0,0,1,7.812,21.392Z" transform="translate(1072.5 405.492)" fill="#fff"/>
  </g>
</svg>
