<svg xmlns="http://www.w3.org/2000/svg" width="30.028" height="30" viewBox="0 0 30.028 30">
  <path id="barcode" d="M28.168,30a1.844,1.844,0,0,1-1.334-.543,1.79,1.79,0,0,1-.557-1.334V1.877A1.79,1.79,0,0,1,26.834.543,1.844,1.844,0,0,1,28.168,0a1.794,1.794,0,0,1,1.319.543,1.818,1.818,0,0,1,.543,1.334V28.123A1.853,1.853,0,0,1,28.168,30Zm-4.707,0a.952.952,0,0,1-.938-.938V.938A.888.888,0,0,1,22.8.264a.956.956,0,0,1,1.319,0A.888.888,0,0,1,24.4.938V29.062a.952.952,0,0,1-.938.938Zm-4.677,0a1.844,1.844,0,0,1-1.334-.543,1.79,1.79,0,0,1-.557-1.334V1.877A1.814,1.814,0,0,1,17.436.543a1.911,1.911,0,0,1,2.669,0,1.814,1.814,0,0,1,.543,1.334V28.123A1.853,1.853,0,0,1,18.785,30ZM12.2,30a.952.952,0,0,1-.938-.938V.938a.888.888,0,0,1,.279-.675.956.956,0,0,1,1.319,0,.888.888,0,0,1,.279.675V29.062A.952.952,0,0,1,12.2,30ZM7.523,30a1.844,1.844,0,0,1-1.334-.543,1.79,1.79,0,0,1-.557-1.334V1.877A1.79,1.79,0,0,1,6.189.543a1.875,1.875,0,0,1,2.638,0,1.79,1.79,0,0,1,.557,1.334V28.123A1.853,1.853,0,0,1,7.522,30Zm-5.63,0a1.844,1.844,0,0,1-1.334-.543A1.79,1.79,0,0,1,0,28.123V1.877A1.814,1.814,0,0,1,.545.543,1.813,1.813,0,0,1,1.878,0,1.815,1.815,0,0,1,3.212.543a1.809,1.809,0,0,1,.543,1.334V28.123A1.853,1.853,0,0,1,1.893,30Z" transform="translate(-0.002)" fill="#707070"/>
</svg>
