<svg xmlns="http://www.w3.org/2000/svg" width="12.828" height="22" viewBox="0 0 12.828 22">
  <g id="Gruppe_20" data-name="Gruppe 20" transform="translate(-460 -497)">
    <path id="Icon_awesome-chevron-right" data-name="Icon awesome-chevron-right" d="M11.668,11.527,4.335,18.861a.906.906,0,0,1-1.281,0L2.2,18.005a.906.906,0,0,1,0-1.279l5.812-5.839L2.2,5.048a.906.906,0,0,1,0-1.279l.855-.855a.906.906,0,0,1,1.281,0l7.333,7.333A.906.906,0,0,1,11.668,11.527Z" transform="translate(460.894 497.352)" fill="#707070"/>
    <circle id="Ellipse_5" data-name="Ellipse 5" cx="5" cy="5" r="5" transform="translate(460 509)" fill="none"/>
    <circle id="Ellipse_6" data-name="Ellipse 6" cx="5" cy="5" r="5" transform="translate(460 497)" fill="none"/>
  </g>
</svg>
