<?xml version="1.0" encoding="UTF-8"?>
<svg xmlns="http://www.w3.org/2000/svg" xmlns:xlink="http://www.w3.org/1999/xlink" width="30px" height="34px" viewBox="0 0 30 33" version="1.1">
<g id="surface1">
<path style=" stroke:none;fill-rule:nonzero;fill:rgb(4.705882%,14.509804%,33.72549%);fill-opacity:1;" d="M 2.109375 29.90625 C 2.109375 31.613281 3.527344 33 5.273438 33 L 24.257812 33 C 26.003906 33 27.421875 31.613281 27.421875 29.90625 L 27.421875 8.25 L 2.109375 8.25 Z M 20.039062 13.40625 C 20.039062 12.835938 20.511719 12.375 21.09375 12.375 C 21.675781 12.375 22.148438 12.835938 22.148438 13.40625 L 22.148438 27.84375 C 22.148438 28.414062 21.675781 28.875 21.09375 28.875 C 20.511719 28.875 20.039062 28.414062 20.039062 27.84375 Z M 13.710938 13.40625 C 13.710938 12.835938 14.183594 12.375 14.765625 12.375 C 15.347656 12.375 15.820312 12.835938 15.820312 13.40625 L 15.820312 27.84375 C 15.820312 28.414062 15.347656 28.875 14.765625 28.875 C 14.183594 28.875 13.710938 28.414062 13.710938 27.84375 Z M 7.382812 13.40625 C 7.382812 12.835938 7.855469 12.375 8.4375 12.375 C 9.019531 12.375 9.492188 12.835938 9.492188 13.40625 L 9.492188 27.84375 C 9.492188 28.414062 9.019531 28.875 8.4375 28.875 C 7.855469 28.875 7.382812 28.414062 7.382812 27.84375 Z M 28.476562 2.0625 L 20.566406 2.0625 L 19.945312 0.855469 C 19.679688 0.332031 19.128906 0 18.53125 0 L 10.996094 0 C 10.398438 0 9.851562 0.332031 9.589844 0.855469 L 8.964844 2.0625 L 1.054688 2.0625 C 0.472656 2.0625 0 2.523438 0 3.09375 L 0 5.15625 C 0 5.726562 0.472656 6.1875 1.054688 6.1875 L 28.476562 6.1875 C 29.058594 6.1875 29.53125 5.726562 29.53125 5.15625 L 29.53125 3.09375 C 29.53125 2.523438 29.058594 2.0625 28.476562 2.0625 Z M 28.476562 2.0625 "/>
</g>
</svg>
